<svg xmlns="http://www.w3.org/2000/svg" viewBox="0 0 900 560" role="img" aria-labelledby="title desc">
  <title id="title">Mixed reality interaction illustration</title>
  <desc id="desc">A headset, virtual objects and a stylized hand gesture.</desc>
  <defs>
    <linearGradient id="bg" x1="0" x2="1" y1="0" y2="1">
      <stop offset="0" stop-color="#123b45"/>
      <stop offset="1" stop-color="#286d65"/>
    </linearGradient>
    <radialGradient id="orb">
      <stop offset="0" stop-color="#e4f7f1" stop-opacity=".95"/>
      <stop offset="1" stop-color="#83cfc0" stop-opacity=".25"/>
    </radialGradient>
  </defs>
  <rect width="900" height="560" fill="url(#bg)"/>
  <circle cx="684" cy="158" r="88" fill="url(#orb)"/>
  <circle cx="211" cy="326" r="45" fill="#f1b4cf" fill-opacity=".72"/>
  <rect x="616" y="322" width="105" height="105" rx="24" fill="#9bc8f4" fill-opacity=".78" transform="rotate(14 668 374)"/>
  <g transform="translate(306 135)">
    <path d="M0 70C0 28 34 0 76 0h212c42 0 76 28 76 70v112c0 33-27 60-60 60h-73c-25 0-37-28-49-46-12 18-24 46-49 46H60c-33 0-60-27-60-60z" fill="#edf7f6" fill-opacity=".92"/>
    <rect x="92" y="70" width="72" height="66" rx="24" fill="#1d5259"/>
    <rect x="200" y="70" width="72" height="66" rx="24" fill="#1d5259"/>
    <path d="M-36 99C-84 99-103 124-111 167" fill="none" stroke="#edf7f6" stroke-width="18" stroke-linecap="round"/>
    <path d="M400 99C448 99 467 124 475 167" fill="none" stroke="#edf7f6" stroke-width="18" stroke-linecap="round"/>
  </g>
  <g transform="translate(570 388) rotate(-8)" fill="none" stroke="#fff" stroke-opacity=".83" stroke-width="13" stroke-linecap="round" stroke-linejoin="round">
    <path d="M0 102C10 46 26 20 43 24 58 27 58 63 55 80"/>
    <path d="M55 80C63 31 79 0 96 7 111 13 104 57 102 80"/>
    <path d="M102 80C114 39 132 19 147 29 160 38 144 72 139 93"/>
    <path d="M139 93C157 67 174 61 185 72 198 86 174 115 158 132"/>
    <path d="M0 102C-3 140 24 173 61 181h56c24-3 39-15 48-34"/>
  </g>
  <g fill="#fff" font-family="Arial, sans-serif">
    <text x="50" y="70" font-size="24" font-weight="700" opacity=".95">Direct interaction in XR</text>
    <text x="50" y="104" font-size="16" opacity=".65">Pinch · grab · physics-based manipulation · real-time feedback</text>
  </g>
</svg>
